# xmcd
#
# Track frame offsets:
#	150
#	28123
#	52575
#	75958
#	98893
#	142383
#	161218
#
# Disc length: 2483 seconds
#
# Revision: 0
# Processed by: cddbd v1.5.2PL0 Copyright (c) Steve Scherf et al.
# Submitted via: EasyCDDAExtractor 16.0.6.1
#
DISCID=5309b107
DTITLE=Άγνωστος - Συμποτικά 1-Χριστόδ. Χάλαρης
DYEAR=1990
DGENRE=Βυζαντινή κοσμική
TTITLE0=Άνευ ερμηνευτού - Orkikato (Dance mysic) [by Ioannis Koukouzelis]
TTITLE1=Άγνωστος - Sympotic song ''Can you see the Amaranth''
TTITLE2=Άνευ ερμηνευτού - A work by Master Manouil Chrysafis
TTITLE3=Άγνωστος - Sympotic song ''Wild bird become tame''
TTITLE4=Άνευ ερμηνευτού - Work by Master Xenos Koronis ''The small Semantron''
TTITLE5=Άγνωστος - Short song ''When the rooster calls''
TTITLE6=Άνευ ερμηνευτού - ''Organikon, Sourouliston, papadikon'' by Master Ioa
TTITLE6=nnis Glykys
EXTD=
EXTT0=
EXTT1=
EXTT2=
EXTT3=
EXTT4=
EXTT5=
EXTT6=
PLAYORDER=
